HIERARCHY
ROOT SpineBase
{
  OFFSET 0.000000 0.000000 0.000000
  CHANNELS 6 Xposition Yposition Zposition Zrotation Xrotation Yrotation
  JOINT SpineMid
  {
    OFFSET 0.000000 28.369008 0.000000
    CHANNELS 3 Zrotation Xrotation Yrotation
    JOINT SpineShoulder
    {
      OFFSET 0.458433 21.272488 -0.905318
      CHANNELS 3 Zrotation Xrotation Yrotation
      JOINT Neck
      {
        OFFSET 0.117257 7.092849 -0.525596
        CHANNELS 3 Zrotation Xrotation Yrotation
        JOINT Head
        {
          OFFSET 4.655014 12.910730 -1.983370
          CHANNELS 3 Zrotation Xrotation Yrotation
          End Site
          {
            OFFSET 0 0 0
          }
        }
      }
      JOINT ShoulderLeft
      {
        OFFSET -13.704581 -0.121948 -9.043457
        CHANNELS 3 Zrotation Xrotation Yrotation
        JOINT ElbowLeft
        {
          OFFSET -5.552878 -25.533025 -3.740144
          CHANNELS 3 Zrotation Xrotation Yrotation
          JOINT WristLeft
          {
            OFFSET 2.944957 -20.491883 -4.930918
            CHANNELS 3 Zrotation Xrotation Yrotation
            JOINT HandLeft
            {
              OFFSET 0.195160 -4.566128 -0.394498
              CHANNELS 3 Zrotation Xrotation Yrotation
              JOINT HandTipLeft
              {
                OFFSET 0.971141 -6.878820 0.034690
                CHANNELS 3 Zrotation Xrotation Yrotation
                End Site
                {
                  OFFSET 0 0 0
                }
              }
              JOINT ThumbLeft
              {
                OFFSET -3.767200 -0.543091 -2.270889
                CHANNELS 3 Zrotation Xrotation Yrotation
                End Site
                {
                  OFFSET 0 0 0
                }
              }
            }
          }
        }
      }
      JOINT ShoulderRight
      {
        OFFSET 14.132126 -3.493993 8.274592
        CHANNELS 3 Zrotation Xrotation Yrotation
        JOINT ElbowRight
        {
          OFFSET -1.014536 -27.924740 4.344649
          CHANNELS 3 Zrotation Xrotation Yrotation
          JOINT WristRight
          {
            OFFSET 0.735065 -26.714715 -2.463140
            CHANNELS 3 Zrotation Xrotation Yrotation
            JOINT HandRight
            {
              OFFSET 1.592299 -6.154865 0.076699
              CHANNELS 3 Zrotation Xrotation Yrotation
              JOINT HandTipRight
              {
                OFFSET 0.860572 -6.227317 0.310714
                CHANNELS 3 Zrotation Xrotation Yrotation
                End Site
                {
                  OFFSET 0 0 0
                }
              }
              JOINT ThumbRight
              {
                OFFSET 1.602678 1.342022 0.203787
                CHANNELS 3 Zrotation Xrotation Yrotation
                End Site
                {
                  OFFSET 0 0 0
                }
              }
            }
          }
        }
      }
    }
  }
  JOINT HipLeft
  {
    OFFSET -5.771498 1.407243 -6.375576
    CHANNELS 3 Zrotation Xrotation Yrotation
    JOINT KneeLeft
    {
      OFFSET -7.372168 -28.950564 0.571149
      CHANNELS 3 Zrotation Xrotation Yrotation
      JOINT AnkleLeft
      {
        OFFSET -5.091621 -31.467839 1.846303
        CHANNELS 3 Zrotation Xrotation Yrotation
        JOINT FootLeft
        {
          OFFSET 5.813989 -2.942002 -12.486852
          CHANNELS 3 Zrotation Xrotation Yrotation
          End Site
          {
            OFFSET 0 0 0
          }
        }
      }
    }
  }
  JOINT HipRight
  {
    OFFSET 6.600576 0.440781 0.037911
    CHANNELS 3 Zrotation Xrotation Yrotation
    JOINT KneeRight
    {
      OFFSET -2.990059 -27.112806 4.847849
      CHANNELS 3 Zrotation Xrotation Yrotation
      JOINT AnkleRight
      {
        OFFSET -11.390897 -34.753761 1.096692
        CHANNELS 3 Zrotation Xrotation Yrotation
        JOINT FootRight
        {
          OFFSET 3.592112 -7.404565 -3.732663
          CHANNELS 3 Zrotation Xrotation Yrotation
          End Site
          {
            OFFSET 0 0 0
          }
        }
      }
    }
  }
}
MOTION
Frames: 10
Frame Time: 0.033333
-45.631760 69.373984 345.334898 -0.000000 0.000000 -27.401505 -0.000000 0.000000 27.401505 -0.000000 0.000000 0.000000 -0.000000 0.000000 0.000000 0.000000 0.000000 0.000000 -0.000000 0.000000 0.000000 -0.000000 0.000000 0.000000 -0.000000 0.000000 0.000000 -0.000000 0.000000 0.000000 0.000000 0.000000 0.000000 0.000000 0.000000 0.000000 -0.000000 0.000000 0.000000 -0.000000 0.000000 0.000000 -0.000000 0.000000 0.000000 -0.000000 0.000000 0.000000 0.000000 0.000000 0.000000 0.000000 0.000000 0.000000 -0.000000 0.000000 27.401505 -0.000000 0.000000 0.000000 -0.000000 0.000000 0.000000 0.000000 0.000000 0.000000 -0.000000 0.000000 27.401505 -0.000000 0.000000 0.000000 -0.000000 0.000000 0.000000 0.000000 0.000000 0.000000
-45.708701 69.355387 345.457363 -0.142924 -0.129528 -28.131932 0.064967 0.181615 28.131668 -0.000000 0.000000 0.000000 -0.000000 0.000000 0.000000 0.000000 0.000000 0.000000 -0.000000 0.000000 0.000000 -0.000000 0.000000 0.000000 2.582261 -1.569194 -0.254895 -2.590171 1.556097 0.325446 0.000000 0.000000 0.000000 0.000000 0.000000 0.000000 -0.000000 0.000000 0.000000 -0.000000 0.000000 0.000000 -0.531637 1.810086 0.470747 -1.634598 -1.477649 -0.579601 0.000000 0.000000 0.000000 0.000000 0.000000 0.000000 0.064967 0.181615 28.131668 -0.000000 0.000000 0.000000 -0.739070 -2.029398 -0.972593 0.000000 0.000000 0.000000 0.064967 0.181615 28.131668 -0.000000 0.000000 0.000000 -0.000000 0.000000 0.000000 0.000000 0.000000 0.000000
-45.797106 69.337117 345.555574 -0.276500 -0.223340 -28.742743 0.135036 0.328783 28.741817 -0.000000 0.000000 0.000000 -0.000000 0.000000 0.000000 0.000000 0.000000 0.000000 -0.000000 0.000000 0.000000 -1.309834 -0.346658 0.262035 5.934871 -2.548564 -0.704392 -4.738937 1.908860 0.512283 0.000000 0.000000 0.000000 0.000000 0.000000 0.000000 -0.000000 0.000000 0.000000 -0.000000 0.000000 0.000000 -1.213412 4.001103 1.066148 -3.010911 -3.220088 -1.354583 0.000000 0.000000 0.000000 0.000000 0.000000 0.000000 0.135036 0.328783 28.741817 -0.000000 0.000000 0.000000 -1.438682 -3.861398 -1.893464 0.000000 0.000000 0.000000 0.135036 0.328783 28.741817 -0.000000 0.000000 0.000000 -0.000000 0.000000 0.000000 0.000000 0.000000 0.000000
-45.896974 69.319176 345.629529 -0.400805 -0.281601 -29.232354 0.212248 0.441468 29.230552 -0.000000 0.000000 0.000000 -0.000000 0.000000 0.000000 0.000000 0.000000 0.000000 -0.000000 0.000000 0.000000 -1.737165 -0.491145 0.341106 7.872439 -3.437117 -0.896161 -6.213243 2.554940 0.729214 0.000000 0.000000 0.000000 0.000000 0.000000 0.000000 -0.435907 -0.685988 -0.045459 1.067207 0.151956 -0.037337 -2.713300 7.115235 1.904057 -4.010674 -5.251534 -2.320587 0.000000 0.000000 0.000000 0.000000 0.000000 0.000000 0.212248 0.441468 29.230552 -0.000000 0.000000 0.000000 -2.058082 -5.417320 -2.716442 0.000000 0.000000 0.000000 0.212248 0.441468 29.230552 -0.000000 0.000000 0.000000 -0.000000 0.000000 0.000000 0.000000 0.000000 0.000000
-46.008305 69.301562 345.679229 -0.515907 -0.304457 -29.599475 0.298214 0.519541 29.596753 -0.000000 0.000000 0.000000 -0.851182 -0.261865 -0.038175 0.000000 0.000000 0.000000 -0.000000 0.000000 0.000000 -2.015017 -0.615693 0.387085 9.132557 -4.052390 -1.009659 -7.081465 3.024897 0.883077 0.000000 0.000000 0.000000 0.000000 0.000000 0.000000 -0.503375 -0.762342 -0.053905 1.329959 0.136450 -0.052792 -3.968023 10.145090 2.846460 -4.542512 -7.573543 -3.435998 0.000000 0.000000 0.000000 0.000000 0.000000 0.000000 0.298214 0.519541 29.596753 0.577391 -0.568310 0.128764 -3.142708 -6.052103 -3.492469 0.000000 0.000000 0.000000 0.890757 1.085561 29.708670 -0.795138 -0.197922 -0.121591 -0.823233 0.022738 0.427641 0.000000 0.000000 0.000000
-46.131100 69.284276 345.704673 -0.621873 -0.292031 -29.843043 0.394106 0.562753 29.839523 -0.000000 0.000000 0.000000 -1.015610 -0.266859 -0.061952 0.000000 0.000000 0.000000 -0.000000 0.000000 0.000000 -2.144980 -0.720114 0.400913 9.733385 -4.395423 -1.058810 -7.354941 3.342286 0.960253 0.000000 0.000000 0.000000 0.000000 0.000000 0.000000 -0.532529 -0.763833 -0.058582 1.551187 0.083723 -0.068784 -5.413025 13.395816 3.953628 -4.561463 -10.144896 -4.614947 0.000000 0.000000 0.000000 0.000000 0.000000 0.000000 0.394106 0.562753 29.839523 0.578318 -0.556439 0.126842 -3.481141 -6.869831 -3.978637 0.000000 0.000000 0.000000 1.210421 1.175424 29.994609 -1.013205 -0.122446 -0.168551 -0.943208 0.077831 0.515762 0.000000 0.000000 0.000000
-46.331199 69.263691 345.612243 -0.817370 -0.120008 -29.950644 0.648322 0.512039 29.946891 -0.000000 0.000000 0.000000 -1.290706 -0.158204 -0.142421 0.000000 0.000000 0.000000 -0.000000 0.000000 0.000000 -2.178835 -0.816113 0.393291 9.604525 -4.571612 -1.053244 -7.230656 3.248081 0.919111 0.000000 0.000000 0.000000 0.000000 0.000000 0.000000 -0.499317 -0.766843 -0.053103 1.441801 -0.191422 -0.071674 -8.802132 17.057795 5.567136 -1.737363 -10.812483 -4.912680 0.000000 0.000000 0.000000 0.000000 0.000000 0.000000 0.648322 0.512039 29.946891 -0.000000 0.000000 0.000000 -2.220127 -5.937797 -3.283711 0.000000 0.000000 0.000000 2.722038 1.003173 30.352242 -1.996464 1.583022 -0.735807 -1.134804 -0.830731 0.920721 0.000000 0.000000 0.000000
-46.507086 69.243364 345.569892 -0.943423 -0.015576 -29.874825 0.810318 0.483414 29.871278 -0.000000 0.000000 0.000000 -1.395338 -0.036157 -0.200877 0.000000 0.000000 0.000000 -0.000000 0.000000 0.000000 -1.998766 -0.920194 0.334191 8.703570 -4.319931 -0.971525 -6.363124 3.295004 0.823736 0.000000 0.000000 0.000000 0.000000 0.000000 0.000000 -0.477654 -0.694199 -0.051931 1.875869 -0.832060 -0.123244 -14.469692 21.657899 8.220866 -0.027266 -18.814167 -7.362485 0.000000 0.000000 0.000000 0.000000 0.000000 0.000000 0.810318 0.483414 29.871278 -0.000000 0.000000 0.000000 -2.645596 -6.928706 -3.782010 0.000000 0.000000 0.000000 2.944062 0.905621 30.291062 -1.785786 1.624470 -0.730139 -1.390408 -0.644447 0.981428 0.000000 0.000000 0.000000
-46.648240 69.250323 345.551812 -1.012482 0.054508 -29.544180 0.907729 0.451815 29.541082 -0.000000 0.000000 0.000000 -1.374851 0.169634 -0.269240 0.000000 0.000000 0.000000 -0.000000 0.000000 0.000000 -1.960134 -1.091944 0.297510 5.964227 -4.298154 -0.801123 -4.090304 3.395495 0.497918 0.000000 0.000000 0.000000 0.000000 0.000000 0.000000 -0.000000 0.000000 0.000000 1.346511 -2.564093 -0.164871 -12.031302 24.375596 8.561244 -2.412473 -17.075607 -7.616733 0.000000 0.000000 0.000000 0.000000 0.000000 0.000000 1.815711 0.030464 29.756345 -0.579149 0.816432 -0.214958 -5.496700 -12.944205 -6.992423 0.000000 0.000000 0.000000 2.444119 0.805067 29.844247 -0.734359 1.151010 -0.529496 -1.915981 -0.245068 0.993358 0.000000 0.000000 0.000000
-46.684480 69.233973 345.686048 -0.895909 -0.055668 -29.381482 0.753379 0.488043 29.377838 -0.000000 0.000000 0.000000 -1.301277 0.130057 -0.244370 0.000000 0.000000 0.000000 -0.000000 0.000000 0.000000 -1.895645 -1.236625 0.259290 5.669212 -3.697938 -0.757703 -3.954200 3.785196 0.557451 0.000000 0.000000 0.000000 0.000000 0.000000 0.000000 -0.000000 0.000000 0.000000 2.243631 -0.416781 -0.210156 -10.204971 19.632284 6.685599 -4.969014 -17.826932 -7.966991 0.000000 0.000000 0.000000 0.000000 0.000000 0.000000 1.672524 0.247131 29.553937 -0.680712 0.662935 -0.178058 -7.814842 -17.162918 -9.483000 0.000000 0.000000 0.000000 0.753379 0.488043 29.377838 1.486281 0.376625 -0.081781 -1.485774 -0.378620 0.071986 0.000000 0.000000 0.000000
